<!-- CC @blazardsky -->
<svg width="96" height="87" viewBox="0 0 96 87" fill="none" xmlns="http://www.w3.org/2000/svg">
<mask id="path-1-outside-1_140_557" maskUnits="userSpaceOnUse" x="0.921631" y="0.0187378" width="95" height="87" fill="black">
<rect fill="white" x="0.921631" y="0.0187378" width="95" height="87"/>
<path fill-rule="evenodd" clip-rule="evenodd" d="M88.4366 4.01874C88.4366 4.01874 88.4469 7.81278 86.4069 11.2731C85.0111 13.6404 83.0172 15.2383 81.8969 16.0114C84.1197 20.1311 86.5705 25.118 88.663 30.2988C89.9156 30.4778 91.0679 30.6115 91.9547 30.6963C90.9224 30.6353 89.9402 30.8128 89.0121 31.1736C90.6786 35.4003 92.0867 39.7302 92.9216 43.8015L91.9547 44.2868C91.714 42.0315 90.6585 37.5708 88.2751 31.5034C83.6916 33.826 80.5461 40.5296 79.3847 44.2868C76.6773 83.8936 51.1826 83.117 38.7737 77.7779C37.6457 78.2632 32.9723 80.0106 23.3029 83.117C11.2161 87 4.93135 77.2925 2.9975 73.8948C1.45042 71.1767 23.9476 67.5849 35.3896 66.1288C-4.83453 54.0915 0.902574 22.9303 8.79915 8.85433C16.4893 22.5409 42.3975 34.3509 57.9003 39.8412L32.0052 25.8425C33.9391 20.018 40.2241 11.7666 44.0918 11.2812L62.4785 41.2779C65.4041 22.4565 76.9715 25.8458 79.3847 27.784C80.6889 28.8316 84.4121 29.6436 87.7364 30.1606C86.5027 27.1476 84.9565 23.7767 83.0416 20.1134C82.2706 20.4671 79.3017 21.7013 75.8707 21.4697C71.8746 21.2001 68.7647 19.0444 68.7647 19.0444C68.7647 19.0444 72.1339 17.3258 76.13 17.5955C79.3164 17.8105 81.9392 19.2246 82.8714 19.7889C82.311 18.724 81.7197 17.6348 81.0959 16.5229C81.065 16.5406 81.0488 16.5495 81.0488 16.5495C81.0488 16.5495 81.0487 16.5123 81.0505 16.442C80.1468 14.8334 79.1753 13.1774 78.1321 11.4788C76.8775 11.9444 73.0414 13.1801 68.6977 12.7324C63.3854 12.185 59.3258 9.32699 59.3258 9.32699C59.3258 9.32699 63.8791 7.35659 69.1914 7.90405C73.0327 8.29991 76.219 9.90386 77.689 10.7618C77.2972 10.1316 76.8956 9.49568 76.4839 8.85433L77.4508 8.36895C78.4634 9.95488 79.7733 12.1479 81.21 14.7523C81.4239 13.3281 81.9213 11.258 83.0785 9.29519C85.1186 5.83491 88.4366 4.01874 88.4366 4.01874ZM75.7736 31.6277C75.8346 31.8857 75.8231 32.144 75.7523 32.381C75.4082 32.0157 74.8848 31.8394 74.3624 31.9639C73.8401 32.0884 73.4514 32.482 73.3075 32.9637C73.1382 32.7839 73.0123 32.5583 72.9512 32.3003C72.7662 31.5179 73.2481 30.733 74.0274 30.5472C74.4172 30.4543 74.8075 30.5289 75.1235 30.7245L74.9007 31.0874L75.4173 30.9643C75.5867 31.1441 75.7126 31.3696 75.7736 31.6277Z"/>
</mask>
<path fill-rule="evenodd" clip-rule="evenodd" d="M88.4366 4.01874C88.4366 4.01874 88.4469 7.81278 86.4069 11.2731C85.0111 13.6404 83.0172 15.2383 81.8969 16.0114C84.1197 20.1311 86.5705 25.118 88.663 30.2988C89.9156 30.4778 91.0679 30.6115 91.9547 30.6963C90.9224 30.6353 89.9402 30.8128 89.0121 31.1736C90.6786 35.4003 92.0867 39.7302 92.9216 43.8015L91.9547 44.2868C91.714 42.0315 90.6585 37.5708 88.2751 31.5034C83.6916 33.826 80.5461 40.5296 79.3847 44.2868C76.6773 83.8936 51.1826 83.117 38.7737 77.7779C37.6457 78.2632 32.9723 80.0106 23.3029 83.117C11.2161 87 4.93135 77.2925 2.9975 73.8948C1.45042 71.1767 23.9476 67.5849 35.3896 66.1288C-4.83453 54.0915 0.902574 22.9303 8.79915 8.85433C16.4893 22.5409 42.3975 34.3509 57.9003 39.8412L32.0052 25.8425C33.9391 20.018 40.2241 11.7666 44.0918 11.2812L62.4785 41.2779C65.4041 22.4565 76.9715 25.8458 79.3847 27.784C80.6889 28.8316 84.4121 29.6436 87.7364 30.1606C86.5027 27.1476 84.9565 23.7767 83.0416 20.1134C82.2706 20.4671 79.3017 21.7013 75.8707 21.4697C71.8746 21.2001 68.7647 19.0444 68.7647 19.0444C68.7647 19.0444 72.1339 17.3258 76.13 17.5955C79.3164 17.8105 81.9392 19.2246 82.8714 19.7889C82.311 18.724 81.7197 17.6348 81.0959 16.5229C81.065 16.5406 81.0488 16.5495 81.0488 16.5495C81.0488 16.5495 81.0487 16.5123 81.0505 16.442C80.1468 14.8334 79.1753 13.1774 78.1321 11.4788C76.8775 11.9444 73.0414 13.1801 68.6977 12.7324C63.3854 12.185 59.3258 9.32699 59.3258 9.32699C59.3258 9.32699 63.8791 7.35659 69.1914 7.90405C73.0327 8.29991 76.219 9.90386 77.689 10.7618C77.2972 10.1316 76.8956 9.49568 76.4839 8.85433L77.4508 8.36895C78.4634 9.95488 79.7733 12.1479 81.21 14.7523C81.4239 13.3281 81.9213 11.258 83.0785 9.29519C85.1186 5.83491 88.4366 4.01874 88.4366 4.01874ZM75.7736 31.6277C75.8346 31.8857 75.8231 32.144 75.7523 32.381C75.4082 32.0157 74.8848 31.8394 74.3624 31.9639C73.8401 32.0884 73.4514 32.482 73.3075 32.9637C73.1382 32.7839 73.0123 32.5583 72.9512 32.3003C72.7662 31.5179 73.2481 30.733 74.0274 30.5472C74.4172 30.4543 74.8075 30.5289 75.1235 30.7245L74.9007 31.0874L75.4173 30.9643C75.5867 31.1441 75.7126 31.3696 75.7736 31.6277Z" fill="#F4F4F4"/>
<path d="M86.4069 11.2731L84.684 10.2573L84.684 10.2573L86.4069 11.2731ZM88.4366 4.01874L90.4365 4.01327L90.4273 0.649016L87.4763 2.26436L88.4366 4.01874ZM81.8969 16.0114L80.7609 14.3654L79.2856 15.3835L80.1368 16.9611L81.8969 16.0114ZM88.663 30.2988L86.8085 31.0478L87.2399 32.1157L88.38 32.2787L88.663 30.2988ZM91.9547 30.6963L91.8368 32.6928L92.1451 28.7054L91.9547 30.6963ZM89.0121 31.1736L88.2875 29.3095L86.4144 30.0376L87.1515 31.9072L89.0121 31.1736ZM92.9216 43.8015L93.8189 45.5889L95.1888 44.9012L94.8809 43.3997L92.9216 43.8015ZM91.9547 44.2868L89.966 44.4991L90.2723 47.3692L92.852 46.0743L91.9547 44.2868ZM88.2751 31.5034L90.1367 30.7722L89.3327 28.7254L87.3711 29.7194L88.2751 31.5034ZM79.3847 44.2868L77.4739 43.6962L77.4052 43.9184L77.3893 44.1505L79.3847 44.2868ZM38.7737 77.7779L39.5642 75.9407L38.7737 75.6006L37.9832 75.9407L38.7737 77.7779ZM23.3029 83.117L23.9146 85.0212L23.9146 85.0212L23.3029 83.117ZM2.9975 73.8948L4.73567 72.9055L4.73567 72.9055L2.9975 73.8948ZM35.3896 66.1288L35.6421 68.1128L35.963 64.2128L35.3896 66.1288ZM8.79915 8.85433L10.5428 7.87463L8.79778 4.76901L7.05488 7.87579L8.79915 8.85433ZM57.9003 39.8412L57.2326 41.7265L58.8514 38.0818L57.9003 39.8412ZM32.0052 25.8425L30.1071 25.2123L29.5786 26.8042L31.0541 27.6019L32.0052 25.8425ZM44.0918 11.2812L45.797 10.236L45.1228 9.13614L43.8428 9.29678L44.0918 11.2812ZM62.4785 41.2779L60.7734 42.3231L63.6186 46.9648L64.4548 41.5851L62.4785 41.2779ZM79.3847 27.784L80.6371 26.2247L80.637 26.2247L79.3847 27.784ZM87.7364 30.1606L87.4291 32.1368L90.9297 32.6812L89.5873 29.4027L87.7364 30.1606ZM83.0416 20.1134L84.8141 19.1869L83.9342 17.5037L82.2078 18.2956L83.0416 20.1134ZM75.8707 21.4697L75.736 23.4652L75.736 23.4652L75.8707 21.4697ZM68.7647 19.0444L67.856 17.2628L64.8764 18.7826L67.6253 20.6881L68.7647 19.0444ZM76.13 17.5955L76.2647 15.6L76.2647 15.6L76.13 17.5955ZM82.8714 19.7889L81.8357 21.4998L87.9933 25.2274L84.6413 18.8575L82.8714 19.7889ZM81.0959 16.5229L82.8402 15.5444L81.8526 13.7838L80.1013 14.7878L81.0959 16.5229ZM81.0488 16.5495L79.0488 16.5548L79.0578 19.9195L82.0092 18.3038L81.0488 16.5495ZM81.0505 16.442L83.0499 16.493L83.0639 15.9425L82.7942 15.4624L81.0505 16.442ZM78.1321 11.4788L79.8364 10.4321L78.9766 9.03223L77.4364 9.60375L78.1321 11.4788ZM68.6977 12.7324L68.4927 14.7219L68.4927 14.7219L68.6977 12.7324ZM59.3258 9.32699L58.5315 7.49149L55.2571 8.90848L58.1745 10.9624L59.3258 9.32699ZM69.1914 7.90405L69.3964 5.91458L69.3964 5.91458L69.1914 7.90405ZM77.689 10.7618L76.6809 12.4892L79.3875 9.7058L77.689 10.7618ZM76.4839 8.85433L75.5866 7.06689L73.6001 8.0641L74.8008 9.93469L76.4839 8.85433ZM77.4508 8.36895L79.1365 7.29264L78.1657 5.77224L76.5535 6.58151L77.4508 8.36895ZM81.21 14.7523L79.4588 15.7184L82.3111 20.8887L83.1879 15.0493L81.21 14.7523ZM83.0785 9.29519L81.3556 8.27944L81.3556 8.27945L83.0785 9.29519ZM75.7523 32.381L74.2965 33.7524L76.6756 36.2781L77.6687 32.9534L75.7523 32.381ZM75.7736 31.6277L77.7199 31.1675L77.7199 31.1674L75.7736 31.6277ZM74.3624 31.9639L74.8261 33.9095L74.8261 33.9094L74.3624 31.9639ZM73.3075 32.9637L71.8516 34.335L74.2307 36.8608L75.2238 33.5361L73.3075 32.9637ZM72.9512 32.3003L71.0049 32.7605L71.0049 32.7606L72.9512 32.3003ZM74.0274 30.5472L74.4911 32.4927L74.4911 32.4927L74.0274 30.5472ZM75.1235 30.7245L76.828 31.7708L77.8705 30.0725L76.1761 29.0238L75.1235 30.7245ZM74.9007 31.0874L73.1963 30.0411L70.6733 34.1509L75.3644 33.0329L74.9007 31.0874ZM75.4173 30.9643L76.8731 29.5929L76.0795 28.7505L74.9537 29.0188L75.4173 30.9643ZM88.1297 12.2888C89.3064 10.2929 89.875 8.2352 90.1541 6.70788C90.2949 5.93767 90.3653 5.28445 90.4006 4.81603C90.4183 4.58136 90.4273 4.39173 90.4319 4.25547C90.4342 4.18729 90.4354 4.13235 90.436 4.09167C90.4363 4.07133 90.4364 4.05454 90.4365 4.04143C90.4365 4.03488 90.4365 4.02924 90.4366 4.02454C90.4366 4.02219 90.4366 4.02008 90.4366 4.0182C90.4366 4.01726 90.4366 4.01638 90.4366 4.01556C90.4366 4.01515 90.4365 4.01457 90.4365 4.01437C90.4365 4.01381 90.4365 4.01327 88.4366 4.01874C86.4366 4.02421 86.4366 4.02369 86.4366 4.02319C86.4366 4.02305 86.4366 4.02256 86.4366 4.02227C86.4366 4.02168 86.4366 4.02114 86.4366 4.02066C86.4366 4.0197 86.4366 4.01897 86.4366 4.01846C86.4366 4.01743 86.4366 4.01729 86.4366 4.01802C86.4365 4.01949 86.4365 4.02442 86.4364 4.03271C86.4361 4.0493 86.4356 4.07925 86.4341 4.12158C86.4313 4.20631 86.4252 4.34013 86.412 4.51521C86.3855 4.86632 86.331 5.37787 86.2193 5.98871C85.9936 7.22347 85.5474 8.79292 84.684 10.2573L88.1297 12.2888ZM83.033 17.6575C84.2707 16.8032 86.5264 15.0083 88.1297 12.2888L84.684 10.2573C83.4959 12.2725 81.7637 13.6733 80.7609 14.3654L83.033 17.6575ZM90.5174 29.5498C88.3909 24.2848 85.9059 19.2297 83.6571 15.0617L80.1368 16.9611C82.3335 21.0324 84.7501 25.9513 86.8085 31.0478L90.5174 29.5498ZM92.1451 28.7054C91.2901 28.6236 90.1686 28.4937 88.946 28.3189L88.38 32.2787C89.6626 32.462 90.8458 32.5994 91.7643 32.6872L92.1451 28.7054ZM89.7368 33.0377C90.4213 32.7716 91.1168 32.6503 91.8368 32.6928L92.0726 28.6998C90.7281 28.6204 89.4591 28.8541 88.2875 29.3095L89.7368 33.0377ZM94.8809 43.3997C94.0154 39.1793 92.5657 34.7339 90.8727 30.44L87.1515 31.9072C88.7916 36.0668 90.1581 40.281 90.9624 44.2032L94.8809 43.3997ZM92.852 46.0743L93.8189 45.5889L92.0244 42.014L91.0574 42.4994L92.852 46.0743ZM86.4136 32.2346C88.7615 38.2119 89.7514 42.4881 89.966 44.4991L93.9434 44.0746C93.6766 41.5749 92.5554 36.9296 90.1367 30.7722L86.4136 32.2346ZM81.2954 44.8775C81.8333 43.1377 82.8444 40.681 84.2482 38.4081C85.675 36.0981 87.3681 34.2051 89.1791 33.2874L87.3711 29.7194C84.5986 31.1242 82.4273 33.7444 80.845 36.3061C79.2398 38.9051 78.0975 41.6788 77.4739 43.6962L81.2954 44.8775ZM37.9832 79.615C44.5059 82.4215 54.633 84.1193 63.6043 79.6796C72.7306 75.1632 79.9978 64.6437 81.38 44.4232L77.3893 44.1505C76.0641 63.5368 69.2303 72.4324 61.8302 76.0946C54.2751 79.8334 45.4504 78.4733 39.5642 75.9407L37.9832 79.615ZM23.9146 85.0212C33.582 81.9154 38.3385 80.1424 39.5642 79.615L37.9832 75.9407C36.9529 76.384 32.3626 78.1058 22.6911 81.2129L23.9146 85.0212ZM1.25933 74.8842C2.26868 76.6575 4.4982 80.2423 8.18294 82.8655C11.961 85.5551 17.2037 87.1771 23.9146 85.0212L22.6911 81.2129C17.3153 82.9399 13.3722 81.6497 10.5028 79.6069C7.53996 77.4976 5.66017 74.5298 4.73567 72.9055L1.25933 74.8842ZM35.1372 64.1448C29.39 64.8762 20.849 66.1458 13.9174 67.5801C10.4688 68.2937 7.33073 69.0655 5.12253 69.8566C4.05 70.2409 3.02347 70.6887 2.28831 71.2312C1.92909 71.4963 1.45723 71.9142 1.17009 72.526C0.825527 73.2602 0.825034 74.1211 1.25933 74.8842L4.73567 72.9055C4.97658 73.3288 4.97055 73.8431 4.79116 74.2254C4.66918 74.4853 4.5332 74.5458 4.66343 74.4497C4.90715 74.2699 5.4738 73.9797 6.4716 73.6223C8.40408 72.93 11.3153 72.2032 14.7279 71.4971C21.5187 70.0919 29.9473 68.8375 35.6421 68.1128L35.1372 64.1448ZM7.05488 7.87579C2.94859 15.1954 -0.654357 27.0237 2.1025 38.7151C4.90459 50.5982 14.1599 61.8633 34.8163 68.0449L35.963 64.2128C16.3952 58.357 8.40699 48.0228 5.99573 37.797C3.53924 27.3795 6.75313 16.5892 10.5434 9.83286L7.05488 7.87579ZM58.568 37.9559C50.8941 35.2382 40.6566 30.9592 31.4111 25.6842C22.0813 20.361 14.1034 14.2117 10.5428 7.87463L7.05553 9.83403C11.1851 17.1836 20.0064 23.7825 29.4289 29.1585C38.9358 34.5827 49.4037 38.9538 57.2326 41.7265L58.568 37.9559ZM31.0541 27.6019L56.9492 41.6006L58.8514 38.0818L32.9563 24.0831L31.0541 27.6019ZM43.8428 9.29678C42.3231 9.48749 40.8506 10.3728 39.5924 11.3818C38.2843 12.4307 36.975 13.8036 35.7656 15.3052C33.3614 18.2907 31.1679 22.0174 30.1071 25.2123L33.9033 26.4727C34.7764 23.8432 36.6923 20.5319 38.881 17.8141C39.9681 16.4642 41.0761 15.3192 42.0947 14.5024C43.1631 13.6457 43.9267 13.3176 44.3408 13.2656L43.8428 9.29678ZM64.1837 40.2327L45.797 10.236L42.3867 12.3264L60.7734 42.3231L64.1837 40.2327ZM80.637 26.2247C79.7313 25.4972 78.2407 24.812 76.5316 24.4674C74.7829 24.1149 72.6419 24.0851 70.4549 24.8613C65.9267 26.4682 62.0243 31.179 60.5023 40.9707L64.4548 41.5851C65.8584 32.5554 69.2024 29.5501 71.7926 28.6309C73.1647 28.144 74.5509 28.1486 75.7412 28.3886C76.9711 28.6365 77.8314 29.1017 78.1323 29.3434L80.637 26.2247ZM88.0438 28.1843C86.4169 27.9313 84.73 27.6115 83.3137 27.2375C81.787 26.8344 80.92 26.452 80.6371 26.2247L78.1323 29.3434C79.1535 30.1636 80.8003 30.711 82.2924 31.105C83.8948 31.5281 85.7317 31.8728 87.4291 32.1368L88.0438 28.1843ZM81.2692 21.04C83.1556 24.6487 84.6756 27.9633 85.8856 30.9184L89.5873 29.4027C88.3299 26.3318 86.7575 22.9046 84.8141 19.1869L81.2692 21.04ZM75.736 23.4652C79.6627 23.7302 82.9966 22.3345 83.8755 21.9313L82.2078 18.2956C81.5445 18.5998 78.9407 19.6723 76.0053 19.4743L75.736 23.4652ZM68.7647 19.0444C67.6253 20.6881 67.6258 20.6884 67.6262 20.6887C67.6264 20.6888 67.6269 20.6892 67.6272 20.6894C67.6279 20.6899 67.6286 20.6904 67.6294 20.6909C67.631 20.692 67.6327 20.6932 67.6346 20.6945C67.6385 20.6972 67.6432 20.7004 67.6486 20.7041C67.6594 20.7114 67.6734 20.7208 67.6903 20.7321C67.7241 20.7547 67.77 20.7849 67.8273 20.8216C67.942 20.8951 68.103 20.9951 68.306 21.1134C68.7111 21.3495 69.2879 21.6612 70.0008 21.9809C71.4144 22.6148 73.4282 23.3095 75.736 23.4652L76.0053 19.4743C74.317 19.3604 72.7779 18.8424 71.6375 18.331C71.0734 18.0781 70.623 17.834 70.3202 17.6575C70.1691 17.5695 70.056 17.4989 69.985 17.4535C69.9495 17.4307 69.9247 17.4143 69.911 17.4052C69.9042 17.4006 69.9001 17.3979 69.899 17.3971C69.8984 17.3967 69.8985 17.3968 69.8994 17.3974C69.8998 17.3977 69.9004 17.3981 69.9012 17.3987C69.9016 17.3989 69.902 17.3992 69.9025 17.3996C69.9028 17.3998 69.9032 17.4 69.9033 17.4001C69.9037 17.4004 69.9041 17.4007 68.7647 19.0444ZM76.2647 15.6C73.9568 15.4443 71.8683 15.8622 70.3828 16.3006C69.6337 16.5216 69.0204 16.7531 68.5874 16.9327C68.3705 17.0227 68.1975 17.1001 68.0741 17.1575C68.0123 17.1863 67.9628 17.21 67.9262 17.2278C67.908 17.2368 67.8929 17.2442 67.8812 17.2501C67.8753 17.253 67.8703 17.2555 67.8661 17.2577C67.864 17.2587 67.8621 17.2597 67.8604 17.2605C67.8595 17.261 67.8588 17.2614 67.858 17.2617C67.8576 17.2619 67.8571 17.2622 67.8569 17.2623C67.8565 17.2625 67.856 17.2628 68.7647 19.0444C69.6735 20.826 69.673 20.8262 69.6726 20.8265C69.6725 20.8265 69.672 20.8268 69.6718 20.8269C69.6712 20.8272 69.6707 20.8274 69.6703 20.8276C69.6695 20.8281 69.6688 20.8284 69.6683 20.8286C69.6674 20.8291 69.6672 20.8292 69.6679 20.8289C69.6691 20.8282 69.6735 20.8261 69.6808 20.8225C69.6956 20.8153 69.7224 20.8024 69.7606 20.7846C69.837 20.7491 69.9585 20.6944 70.1198 20.6275C70.4434 20.4933 70.9222 20.3119 71.5149 20.1371C72.713 19.7835 74.3071 19.477 75.9954 19.5909L76.2647 15.6ZM83.9071 18.078C82.8653 17.4473 79.9175 15.8465 76.2647 15.6L75.9954 19.5909C78.7152 19.7745 81.0132 21.0019 81.8357 21.4998L83.9071 18.078ZM79.3516 17.5014C79.9666 18.5977 80.5494 19.6712 81.1015 20.7203L84.6413 18.8575C84.0726 17.7768 83.4727 16.672 82.8402 15.5444L79.3516 17.5014ZM81.0488 16.5495C82.0092 18.3038 82.0092 18.3038 82.0092 18.3038C82.0093 18.3038 82.0093 18.3038 82.0093 18.3038C82.0094 18.3037 82.0094 18.3037 82.0094 18.3037C82.0095 18.3036 82.0096 18.3036 82.0097 18.3035C82.0099 18.3034 82.0101 18.3033 82.0103 18.3032C82.0106 18.303 82.011 18.3028 82.0114 18.3026C82.0123 18.3021 82.0132 18.3017 82.0141 18.3011C82.016 18.3001 82.0182 18.2989 82.0206 18.2976C82.0254 18.2949 82.0312 18.2917 82.038 18.2878C82.0517 18.2802 82.0693 18.2703 82.0906 18.258L80.1013 14.7878C80.0917 14.7933 80.0858 14.7966 80.0836 14.7979C80.0824 14.7985 80.0823 14.7986 80.0831 14.7981C80.0835 14.7979 80.0841 14.7975 80.085 14.797C80.0855 14.7968 80.086 14.7965 80.0866 14.7962C80.0868 14.796 80.0871 14.7959 80.0875 14.7957C80.0876 14.7956 80.0878 14.7955 80.0879 14.7954C80.088 14.7954 80.0881 14.7954 80.0882 14.7953C80.0882 14.7953 80.0883 14.7953 80.0883 14.7952C80.0883 14.7952 80.0884 14.7952 80.0884 14.7952C80.0884 14.7952 80.0884 14.7952 81.0488 16.5495ZM79.0512 16.391C79.05 16.4361 79.0494 16.4726 79.0491 16.5001C79.049 16.5138 79.0489 16.5253 79.0488 16.5344C79.0488 16.539 79.0488 16.543 79.0488 16.5464C79.0488 16.5481 79.0488 16.5497 79.0488 16.5511C79.0488 16.5518 79.0488 16.5524 79.0488 16.5531C79.0488 16.5534 79.0488 16.5537 79.0488 16.554C79.0488 16.5541 79.0488 16.5543 79.0488 16.5544C79.0488 16.5545 79.0488 16.5546 79.0488 16.5546C79.0488 16.5547 79.0488 16.5547 79.0488 16.5547C79.0488 16.5548 79.0488 16.5548 81.0488 16.5495C83.0488 16.5442 83.0488 16.5442 83.0488 16.5443C83.0488 16.5443 83.0488 16.5443 83.0488 16.5444C83.0488 16.5444 83.0488 16.5445 83.0488 16.5446C83.0488 16.5447 83.0488 16.5448 83.0488 16.545C83.0488 16.5452 83.0488 16.5455 83.0488 16.5457C83.0488 16.5462 83.0488 16.5467 83.0488 16.5471C83.0488 16.5479 83.0488 16.5486 83.0488 16.5491C83.0488 16.5502 83.0488 16.5508 83.0488 16.5508C83.0488 16.5507 83.0488 16.5485 83.0489 16.5442C83.049 16.5355 83.0492 16.5182 83.0499 16.493L79.0512 16.391ZM76.4279 12.5255C77.4575 14.2019 78.4158 15.8355 79.3068 17.4216L82.7942 15.4624C81.8778 13.8312 80.8932 12.1529 79.8364 10.4321L76.4279 12.5255ZM68.4927 14.7219C73.2819 15.2155 77.4567 13.8627 78.8279 13.3539L77.4364 9.60375C76.2984 10.026 72.8008 11.1447 68.9027 10.743L68.4927 14.7219ZM59.3258 9.32699C58.1745 10.9624 58.1749 10.9627 58.1754 10.963C58.1756 10.9631 58.176 10.9634 58.1764 10.9637C58.1771 10.9642 58.1778 10.9647 58.1786 10.9653C58.1802 10.9664 58.1821 10.9677 58.1843 10.9692C58.1885 10.9722 58.1938 10.9758 58.2 10.9801C58.2125 10.9888 58.229 11.0001 58.2493 11.0139C58.2901 11.0416 58.3464 11.0793 58.4176 11.1257C58.5599 11.2186 58.7621 11.3468 59.0187 11.4998C59.5311 11.8054 60.2646 12.2128 61.1744 12.637C62.983 13.4804 65.5472 14.4184 68.4927 14.7219L68.9027 10.743C66.5359 10.4991 64.4142 9.73429 62.8649 9.01182C62.0958 8.65315 61.4823 8.31176 61.0676 8.06441C60.8606 7.94095 60.7042 7.84155 60.6037 7.776C60.5535 7.74325 60.5174 7.71901 60.4961 7.70452C60.4854 7.69727 60.4784 7.69247 60.4752 7.69027C60.4737 7.68917 60.473 7.68871 60.4733 7.68893C60.4735 7.68904 60.4739 7.68932 60.4745 7.68976C60.4748 7.68999 60.4752 7.69025 60.4756 7.69056C60.4759 7.69071 60.4762 7.69098 60.4763 7.69105C60.4767 7.69133 60.4771 7.69161 59.3258 9.32699ZM69.3964 5.91458C66.4509 5.61103 63.7502 6.00642 61.8083 6.46341C60.8316 6.69329 60.0308 6.94256 59.4671 7.13733C59.1849 7.23485 58.9609 7.31911 58.8027 7.38105C58.7236 7.41203 58.6608 7.43747 58.6153 7.45624C58.5926 7.46563 58.5741 7.47335 58.5601 7.47927C58.5531 7.48223 58.5472 7.48474 58.5425 7.48678C58.5401 7.4878 58.538 7.48871 58.5361 7.48949C58.5352 7.48988 58.5344 7.49025 58.5336 7.49058C58.5332 7.49074 58.5327 7.49097 58.5325 7.49105C58.532 7.49127 58.5315 7.49149 59.3258 9.32699C60.1201 11.1625 60.1197 11.1627 60.1192 11.1629C60.1191 11.1629 60.1187 11.1631 60.1184 11.1632C60.1179 11.1634 60.1175 11.1636 60.1172 11.1638C60.1164 11.1641 60.116 11.1643 60.1158 11.1644C60.1155 11.1645 60.1162 11.1642 60.118 11.1634C60.1215 11.1619 60.1293 11.1587 60.1412 11.1538C60.165 11.1439 60.2053 11.1276 60.261 11.1057C60.3726 11.0621 60.5458 10.9967 60.7734 10.918C61.2295 10.7604 61.8991 10.5513 62.7247 10.357C64.3876 9.96569 66.6196 9.6496 68.9864 9.89351L69.3964 5.91458ZM78.6971 9.03445C77.1104 8.10845 73.6394 6.35185 69.3964 5.91458L68.9864 9.89351C72.4259 10.248 75.3275 11.6993 76.6809 12.4892L78.6971 9.03445ZM74.8008 9.93469C75.2073 10.568 75.6038 11.1957 75.9906 11.8178L79.3875 9.7058C78.9906 9.06744 78.5838 8.42341 78.167 7.77396L74.8008 9.93469ZM76.5535 6.58151L75.5866 7.06689L77.3811 10.6418L78.3481 10.1564L76.5535 6.58151ZM82.9612 13.7862C81.507 11.1501 80.1754 8.91973 79.1365 7.29264L75.7651 9.44526C76.7514 10.99 78.0396 13.1457 79.4588 15.7184L82.9612 13.7862ZM81.3556 8.27945C80.0227 10.5403 79.4681 12.8841 79.2322 14.4553L83.1879 15.0493C83.3796 13.7721 83.8199 11.9756 84.8014 10.3109L81.3556 8.27945ZM88.4366 4.01874C87.4763 2.26436 87.4758 2.26463 87.4753 2.26489C87.4751 2.26499 87.4746 2.26527 87.4742 2.26547C87.4735 2.26587 87.4727 2.26629 87.4719 2.26675C87.4703 2.26766 87.4684 2.26868 87.4663 2.26982C87.4622 2.2721 87.4573 2.27484 87.4516 2.27804C87.4401 2.28444 87.4255 2.29268 87.4078 2.30276C87.3725 2.32291 87.325 2.35043 87.2664 2.3853C87.1495 2.45499 86.988 2.55427 86.7914 2.68288C86.3989 2.93959 85.862 3.31613 85.2567 3.81093C84.0563 4.79223 82.5325 6.2833 81.3556 8.27944L84.8014 10.3109C85.6646 8.84681 86.8198 7.69965 87.7884 6.9078C88.2676 6.51601 88.6877 6.22224 88.9811 6.03029C89.1274 5.93456 89.2411 5.86492 89.3136 5.82177C89.3497 5.80022 89.3755 5.78534 89.3898 5.7772C89.3969 5.77313 89.4012 5.77075 89.4024 5.77007C89.403 5.76972 89.4029 5.76981 89.4019 5.77031C89.4015 5.77057 89.4008 5.77093 89.4 5.77139C89.3996 5.77163 89.3991 5.77189 89.3986 5.77217C89.3983 5.77232 89.3979 5.77255 89.3977 5.77262C89.3973 5.77286 89.3969 5.77311 88.4366 4.01874ZM77.6687 32.9534C77.837 32.3898 77.8637 31.7754 77.7199 31.1675L73.8273 32.0879C73.8055 31.996 73.8092 31.8983 73.836 31.8086L77.6687 32.9534ZM74.8261 33.9094C74.6221 33.9581 74.4219 33.8855 74.2965 33.7524L77.2081 31.0097C76.3945 30.1459 75.1474 29.7208 73.8987 30.0184L74.8261 33.9094ZM75.2238 33.5361C75.1726 33.7076 75.0293 33.861 74.8261 33.9095L73.8988 30.0184C72.6508 30.3158 71.7301 31.2565 71.3912 32.3912L75.2238 33.5361ZM71.0049 32.7606C71.1487 33.3685 71.4478 33.9062 71.8516 34.335L74.7634 31.5924C74.8286 31.6616 74.8758 31.7482 74.8976 31.8401L71.0049 32.7606ZM73.5638 28.6017C71.7048 29.0447 70.5676 30.9109 71.0049 32.7605L74.8976 31.8401C74.9649 32.1248 74.7913 32.4212 74.4911 32.4927L73.5638 28.6017ZM76.1761 29.0238C75.4264 28.5598 74.4927 28.3803 73.5638 28.6017L74.4911 32.4927C74.3417 32.5284 74.1887 32.4979 74.071 32.4251L76.1761 29.0238ZM76.6052 32.1337L76.828 31.7708L73.4191 29.6781L73.1963 30.0411L76.6052 32.1337ZM74.9537 29.0188L74.4371 29.1419L75.3644 33.0329L75.881 32.9098L74.9537 29.0188ZM77.7199 31.1674C77.5762 30.5595 77.2771 30.0217 76.8731 29.5929L73.9615 32.3356C73.8963 32.2664 73.849 32.1798 73.8273 32.0879L77.7199 31.1674Z" fill="#E12A2A" mask="url(#path-1-outside-1_140_557)"/>
</svg>
